<svg width="98" height="64" viewBox="0 0 98 64" fill="none" xmlns="http://www.w3.org/2000/svg">
<path d="M23.2657 6.20386C23.3391 6.60016 23.3792 7.16418 23.6271 7.4924C23.8973 7.85181 24.3246 7.95297 24.7439 8.01991L23.7936 8.36525C23.5317 8.80757 23.4231 9.25863 23.3062 9.75305C23.2343 9.3887 23.168 8.93307 22.9781 8.61208C22.7597 8.2405 22.192 8.14161 21.8102 8.05072C22.125 7.95906 22.4645 7.88185 22.734 7.68713C23.1627 7.37754 23.1873 6.69372 23.2657 6.20386Z" fill="white"/>
<path d="M91.555 28.2794C91.7154 28.4631 91.6924 28.7111 91.7264 28.9439C91.7715 29.2504 91.849 29.5756 92.008 29.8441C92.2513 30.2549 92.6287 30.3515 93.0605 30.464C92.1204 30.7417 91.8619 31.0748 91.7124 32.0614C91.6746 32.3189 91.6496 32.5243 91.4895 32.7395C91.5114 32.6981 91.5287 32.6543 91.541 32.6091C91.6432 32.2048 91.4028 31.392 91.1917 31.0456C90.9559 30.6572 90.5316 30.5553 90.1214 30.4553C90.4968 30.3534 90.9305 30.2822 91.1716 29.9438C91.4611 29.5372 91.6458 28.7746 91.555 28.2794Z" fill="#FF6100"/>
<path d="M35.7077 12.2427C35.8518 12.6196 35.8636 13.0227 36.1024 13.3654C36.3756 13.7583 37.0326 13.834 37.4648 13.918C37.1242 13.9964 36.7174 14.0568 36.4184 14.2466C35.8568 14.603 35.8337 15.5534 35.7027 16.1482C35.6036 15.6983 35.5654 14.9631 35.3243 14.5794C35.0594 14.161 34.3835 14.031 33.9444 13.9195C34.3884 13.7746 34.7857 13.7377 35.1983 13.4913L35.2501 13.4612C35.5419 13.276 35.6357 12.5701 35.7077 12.2427Z" fill="#2C0047"/>
<path d="M74.2291 4.15585C74.3888 4.24523 74.4478 4.74307 74.5099 4.92981C74.581 5.14497 74.6821 5.34894 74.81 5.53567C75.1026 5.94871 75.5556 5.98978 76.0165 6.06433C75.7789 6.18032 75.4719 6.18603 75.2218 6.29518C74.4906 6.61161 74.5379 7.35705 74.2809 7.99143C74.315 7.58106 74.1004 6.96227 73.8575 6.62911C73.5619 6.22482 73.0389 6.16245 72.5806 6.08867C72.9745 5.98674 73.4938 5.90535 73.7719 5.58512C74.055 5.2588 74.256 4.57839 74.2291 4.15585Z" fill="white"/>
<path d="M81.8148 10.8199L81.9923 11.099C81.9991 11.4448 82.1024 11.9685 82.2973 12.2621C82.6595 12.8075 83.201 12.8965 83.799 12.9972C82.7253 13.2426 82.2738 13.4574 82.0475 14.6117C81.993 14.8905 82.0138 15.0362 81.8325 15.2754L81.8674 15.0537C81.9381 14.6247 81.7353 13.9888 81.4919 13.6297C81.1653 13.1494 80.5329 13.0828 80.0073 12.9904L80.8255 12.8193C81.1722 12.7158 81.453 12.5264 81.6202 12.1963C81.8231 11.7973 81.9559 11.2481 81.8148 10.8199Z" fill="white"/>
<path d="M3.03972 33.949C3.08475 34.5435 3.15931 35.3691 3.52338 35.8636C3.83144 36.2819 4.4748 36.3728 4.94825 36.4417C4.58115 36.6352 4.14442 36.6136 3.79208 36.8703C3.26527 37.254 3.1665 38.0672 3.06999 38.6647C2.93526 38.1558 2.82513 37.5617 2.536 37.1164C2.23702 36.6565 1.50131 36.5299 1.00251 36.4287C1.43887 36.3861 1.90588 36.323 2.26427 36.0484C2.86601 35.5916 2.94473 34.6442 3.03972 33.949Z" fill="white"/>
<path d="M70.7935 8.78818L70.8938 8.83686L71.2931 10.1623L72.6725 10.7392L71.326 11.4759L71.2227 12.9934C70.9093 12.6747 70.5468 12.264 70.1558 12.046L70.1134 12.0236C69.7516 12.2415 69.0833 12.3241 68.6651 12.4222L69.2547 11.0827C69.1382 10.6472 68.6401 10.103 68.3703 9.74317L69.9303 9.84662C70.2171 9.56518 70.6013 9.19018 70.7757 8.82811L70.7935 8.78818Z" fill="#FF6100"/>
<path d="M5.27713 25.5088C5.38044 26.436 5.48641 27.5584 6.03668 28.3338C6.49271 28.9758 7.41689 29.0808 8.13557 29.2002C8.02922 29.2729 7.79307 29.2907 7.65986 29.3204C7.21555 29.4182 6.72584 29.5433 6.36555 29.8365C5.71991 30.3621 5.5023 31.54 5.36114 32.3303C5.32746 32.5178 5.33465 32.8145 5.21506 32.9624V32.8377C5.14126 32.039 4.89678 30.7303 4.40025 30.1088C3.87307 29.449 2.7907 29.366 2.01071 29.2721C2.67716 29.1409 3.41628 29.0819 4.01045 28.7271C5.01032 28.1277 5.01372 26.5216 5.27713 25.5088Z" fill="#FF6100"/>
<path d="M84.7739 29.5327C84.9518 29.6468 85.0339 29.8822 85.1308 30.0651C85.2791 30.3465 85.4305 30.6166 85.6035 30.8836C85.8347 30.9844 86.0852 31.022 86.3248 31.0985C86.8213 31.2563 87.224 31.4115 87.7489 31.4704C87.4552 31.5575 87.1138 31.6309 86.8648 31.8127C86.7465 31.8943 86.6363 31.9872 86.536 32.0903C86.4395 32.1957 86.1991 32.4444 86.1526 32.5696C86.1303 32.6293 86.1651 32.8358 86.1681 32.9065L86.2215 34.0129L85.3412 33.6326L85.2806 33.6135L85.2428 33.5835C85.1713 33.5386 84.8711 33.3979 84.7958 33.3956C84.7323 33.3956 84.529 33.5055 84.4624 33.5329C84.1218 33.6729 83.785 33.8174 83.433 33.9269C83.419 33.6025 83.4671 33.2674 83.5034 32.9446C83.5144 32.843 83.5662 32.6517 83.5485 32.5597C83.5375 32.5011 83.3948 32.3387 83.357 32.2843L82.6035 31.2479L84.0688 30.8642C84.3364 30.5869 84.6834 29.9514 84.7663 29.5764L84.7739 29.5327Z" fill="#FF6100"/>
<path d="M30.0668 6.4389C30.2277 7.28475 30.3283 8.39454 30.8071 9.12172C31.2896 9.8546 32.3451 10.0474 33.1414 10.2209C32.4795 10.5152 31.8058 10.5069 31.1897 10.9762C30.3571 11.6098 30.236 13.5765 30.0831 14.5706C29.965 13.5483 29.8628 12.1202 29.2445 11.2759C28.7146 10.5533 27.5948 10.3905 26.7728 10.2642C27.4918 10.1402 28.2968 10.036 28.9057 9.59674C29.6903 9.03196 29.9049 7.36081 30.0668 6.4389Z" fill="#FF6100"/>
<path d="M84.3614 23.6399H84.4314C85.0694 23.6323 86.145 23.3615 86.6048 22.8899C87.5093 21.9626 87.7265 20.1135 87.8915 18.8676C88.0475 20.193 88.1546 22.0437 89.2877 22.9271C89.9208 23.4216 90.7572 23.56 91.5095 23.781C90.5634 23.9791 89.3289 24.1373 88.7635 25.0174C88.5213 25.3947 88.4134 25.837 88.3094 26.2687C88.0925 27.1632 87.9907 28.0771 87.8552 28.9865C87.6747 27.6458 87.6281 25.2947 86.4621 24.4131C85.8362 23.94 85.0524 23.8529 84.3148 23.6848L84.3614 23.6399Z" fill="white"/>
<path d="M5.90156 58.7154L5.93638 58.7409C6.26752 58.9873 6.56006 59.2821 6.89007 59.5301C8.27937 60.574 9.79128 61.421 11.4239 62.0197C11.9647 62.2178 12.5362 62.3045 13.077 62.5008C12.7875 62.5388 12.4756 62.6088 12.1854 62.6149C11.7282 62.4114 10.8528 62.3988 10.34 62.3806C10.3934 62.4573 10.4348 62.5419 10.4627 62.6312C10.4395 62.6659 10.4085 62.6945 10.3722 62.7149C10.1985 62.8157 9.90368 62.8552 9.70613 62.8841C8.9761 62.9914 7.85172 63.029 7.15499 62.7408C7.01799 62.6841 6.95592 62.6267 6.90105 62.492L6.92149 62.4658C7.22425 62.1033 7.95769 62.0763 8.39972 62.0238C7.94558 61.9135 7.39266 61.9428 6.92376 61.9056C4.99744 61.7534 3.04917 61.6561 1.1834 61.1069C0.861721 61.0122 0.372383 60.8878 0.130552 60.6414C-0.00833936 60.4999 -0.0041763 60.4512 0.00528499 60.2645C0.360651 59.7248 1.11339 59.5597 1.70415 59.4141C2.59881 59.1935 3.49726 59.044 4.40932 58.9196C4.88731 58.855 5.38459 58.8341 5.85463 58.7272L5.90156 58.7154Z" fill="#3E134D"/>
<path d="M47.8132 10.1954C48.0698 9.4895 48.2397 8.74482 48.4501 8.02373C49.0462 5.98328 49.9329 4.38249 51.4668 2.892C50.6073 2.20741 49.5893 1.48213 48.5739 1.06644C48.2109 1.90962 47.9354 2.7779 47.2228 3.39745C46.8216 3.24874 46.2676 3.00686 46.0311 2.63262L46.0897 2.54894C46.3546 2.48087 46.7709 2.70374 47.0234 2.79958C47.4355 1.98226 47.4574 0.901756 47.5271 0.00152588C50.3919 0.414559 53.0763 1.43383 55.6869 2.65315C55.3693 3.18561 55.14 3.71806 55.0401 4.33191C54.7169 6.32101 55.7561 8.48734 56.8862 10.071C55.6551 10.7419 54.1008 11.1565 52.6971 11.1709C52.6996 11.0697 52.6832 10.969 52.6487 10.8739C52.614 10.7862 52.562 10.7064 52.4957 10.6395C52.4295 10.5725 52.3505 10.5198 52.2634 10.4844C51.9534 10.3734 50.7186 10.3608 50.4366 10.5088L50.3832 10.54L50.2777 10.6042C50.0956 10.7351 50.0305 10.926 49.9991 11.139C49.2301 10.9153 48.4732 10.6639 47.8132 10.1954Z" fill="white"/>
<path d="M20.595 32.1363C20.8939 31.7971 21.2167 31.5495 21.6421 31.3886C22.4429 31.0844 23.324 31.1718 24.0877 31.529C24.3257 31.7138 24.5797 31.8922 24.7924 32.1048C24.8926 32.2645 25.0085 32.4227 25.0656 32.6038C25.1549 33.0936 25.1413 33.3777 24.8514 33.7915C24.6262 34.1114 24.3216 34.324 23.987 34.5168C23.9439 34.5415 23.8474 34.5902 23.8281 34.6362C23.7883 34.7336 23.8016 34.9983 23.7929 35.1173C23.7596 35.5604 23.7308 36.002 23.6657 36.4416C24.3708 36.3762 25.2408 36.5801 25.9447 36.6885C26.826 36.83 27.6986 37.0223 28.558 37.2643C29.2365 37.4521 30.0267 37.6959 30.6016 38.1181C30.8287 38.3558 30.8517 38.379 30.8396 38.7133C30.8361 38.7845 30.8198 38.8544 30.7916 38.9198C31.0092 39.1263 31.1829 39.2766 31.1878 39.5983C31.1901 39.7505 30.9831 40.0715 31.0012 40.1239C31.0429 40.2449 31.3657 40.54 31.4603 40.653L32.5991 42.1066L33.356 43.3449C34.4115 45.4782 35.1385 47.6209 35.0438 50.0386L34.961 51.3196C34.9065 51.6417 34.8758 51.9977 34.763 52.3046L34.5674 53.1341L33.9108 54.9802C33.6542 55.7161 33.1251 56.438 32.6956 57.0876C32.2036 57.7573 31.6442 58.5051 30.9751 59.0059C32.5854 59.1862 34.2203 59.3433 35.778 59.8172C36.1728 59.9374 36.5236 60.0697 36.7915 60.3964C36.818 60.4991 36.8472 60.5257 36.7878 60.6166C36.4331 61.159 34.83 61.4153 34.1946 61.5218L30.5804 61.9637L29.0912 62.0835C28.8323 62.1052 28.5432 62.1052 28.2934 62.1729C28.7233 62.2775 29.4488 62.3711 29.6994 62.7723C29.7346 62.829 29.7073 62.9073 29.6994 62.9724C29.3939 63.3614 28.8917 63.4383 28.427 63.493C27.3106 63.6246 26.134 63.628 25.0247 63.4238C24.7757 63.3778 24.3893 63.3059 24.1849 63.1469C24.1433 63.1112 24.1083 63.0683 24.0816 63.0203C24.11 62.8332 24.1195 62.7571 24.2799 62.6323L24.4658 62.5217C24.5274 62.4867 24.5036 62.5061 24.546 62.4509L19.8729 62.8811C19.9107 62.9682 19.8793 62.9374 19.9599 62.9746C20.1113 63.0446 20.221 63.0944 20.3115 63.2431L20.3334 63.4383C20.0148 63.8186 18.7844 63.8764 18.297 63.9175C16.9047 64.0346 12.0745 64.1487 11.0758 63.3417C11.0425 63.2333 11.0247 63.2051 11.0788 63.0971C11.1855 62.8845 11.4307 62.8027 11.6438 62.7453L12.185 62.6141C12.4753 62.6088 12.7871 62.538 13.0766 62.5C12.5358 62.3037 11.9644 62.217 11.4236 62.0189C9.79092 61.4202 8.279 60.5736 6.88971 59.5293C6.5597 59.2813 6.26716 58.9865 5.93601 58.7401L5.90119 58.7146C5.70894 58.5625 5.52955 58.3685 5.36152 58.1898C3.17445 55.8698 2.39711 52.772 2.48226 49.6492C2.45501 49.3921 2.52503 49.0661 2.55493 48.8071C2.99923 44.9659 5.08033 41.5429 8.07805 39.1495L8.03036 38.2873C8.59577 38.9997 9.26071 39.3884 10.1028 39.6995C10.3435 39.7881 10.6292 39.8543 10.8513 39.9775L11.5144 40.1639L11.6181 40.1049L11.5988 40.0395C11.2631 39.9022 10.8998 39.7999 10.5807 39.6284L10.5429 39.6078L13.1334 39.1404C15.5127 38.8225 17.9647 38.6391 20.3645 38.6566C20.6336 38.6585 21.1721 38.6011 21.3863 38.7304L21.3829 39.1457C21.4385 38.9278 21.4158 38.6699 21.4207 38.4444L21.4824 37.3533L21.5082 36.4888L21.543 36.334C21.5373 35.7399 21.4926 35.1109 21.5895 34.5244L21.3742 34.4289C20.9318 34.2141 20.5654 33.7748 20.411 33.3055C20.2755 32.8947 20.4133 32.5026 20.595 32.1363Z" fill="#3E134D"/>
<path d="M18.521 51.0777L19.3082 53.0698L18.6421 52.9877L17.6778 52.8679L18.521 51.0777Z" fill="#FF6100"/>
<path d="M13.2806 46.0468C13.7923 46.0642 14.2877 46.1259 14.7327 46.4031C15.0156 46.5802 15.26 46.8129 15.4511 47.0873C15.6423 47.3616 15.7762 47.672 15.845 47.9997C15.9862 48.6653 15.8753 49.4309 15.4999 50.0014C15.0563 50.6757 14.4519 50.9522 13.6893 51.1085C13.0838 51.1085 12.5343 51.0229 12.0298 50.662C11.756 50.4613 11.5243 50.2082 11.3482 49.9172C11.1721 49.6263 11.0549 49.3032 11.0035 48.9665C10.9538 48.621 10.973 48.269 11.06 47.931C11.1469 47.5929 11.2998 47.2757 11.5098 46.9976C11.9791 46.3708 12.5339 46.1517 13.2806 46.0468Z" fill="#FF6100"/>
<path d="M24.0805 46.4898C24.6932 46.4476 25.2639 46.5933 25.7703 46.9428C26.0364 47.1241 26.2642 47.3567 26.4404 47.627C26.6165 47.8973 26.7376 48.2001 26.7966 48.5177C26.8638 48.877 26.8579 49.2462 26.7793 49.603C26.7006 49.9599 26.5509 50.2971 26.3391 50.5943C25.8963 51.2268 25.2703 51.5116 24.535 51.6402C23.9136 51.7161 23.2867 51.5532 22.7798 51.1841C22.2729 50.815 21.9236 50.267 21.8018 49.6499L21.7863 49.5739C21.6539 48.9079 21.8196 48.1861 22.2026 47.6342C22.6791 46.9413 23.2683 46.6393 24.0805 46.4898Z" fill="#FF6100"/>
<path d="M8.08334 40.2114C8.25062 40.2494 8.42206 40.394 8.56511 40.4925L9.73642 41.3607C8.53559 42.5546 7.41386 43.8173 6.6562 45.3492C6.10794 46.4529 5.78305 47.655 5.70035 48.8858C5.61766 50.1166 5.77879 51.3517 6.17444 52.5195C7.19625 55.5317 9.55817 57.6021 12.3273 58.9751L12.3091 59.0322L12.104 58.9633C9.91202 58.1647 7.95391 56.9476 6.39924 55.184C4.70302 53.26 3.49159 50.6433 3.65244 48.0271C3.85756 44.6973 5.68623 42.3473 8.08334 40.2114Z" fill="#AC8BB2"/>
<path d="M10.5403 51.9962C11.5038 52.783 12.4757 53.33 13.6216 53.8038C13.8551 54.4219 13.9334 55.173 14.0894 55.8215L14.9821 54.2119L17.1965 54.6577L17.6551 56.8571L18.3704 54.8003C18.8552 54.8691 19.3956 54.8307 19.8876 54.8353C20.3073 55.5469 20.5431 56.3843 21.037 57.0514L21.2796 54.6824C22.0399 54.6337 22.8403 54.3781 23.5718 54.1769L24.5763 55.7344L24.6519 53.797C25.519 53.4494 26.3762 52.9542 27.1577 52.4446L26.6089 53.7867C25.8668 55.464 24.9914 56.7088 23.4091 57.6638C23.2782 57.5656 23.168 57.3557 23.0719 57.2195L22.5171 56.5019L21.9464 58.3145C21.624 58.4103 20.2233 58.7964 19.9747 58.7226C19.9081 58.7028 19.3495 57.3857 19.2764 57.2207C19.2038 57.277 19.1546 57.4611 19.1182 57.5512L18.6323 58.7968C17.6998 58.7922 16.8195 58.6492 15.9093 58.459L15.7913 56.3243L14.8349 58.0209C14.7127 58.0342 14.5322 57.9212 14.4186 57.8688C13.9127 57.6362 13.431 57.3537 12.9805 57.0256L12.8613 54.9022L11.9825 55.9413C11.022 54.7448 10.7185 53.4901 10.5403 51.9962Z" fill="#FF6100"/>
<path d="M20.595 32.1363C20.8939 31.7971 21.2167 31.5495 21.6421 31.3886C22.4429 31.0844 23.324 31.1718 24.0877 31.529C24.3257 31.7138 24.5797 31.8922 24.7924 32.1048C24.8926 32.2645 25.0085 32.4227 25.0656 32.6038C25.1549 33.0936 25.1413 33.3777 24.8514 33.7915C24.6262 34.1114 24.3216 34.324 23.987 34.5168C23.9439 34.5415 23.8474 34.5902 23.8281 34.6362C23.7883 34.7336 23.8016 34.9983 23.7929 35.1173C23.7596 35.5604 23.7308 36.002 23.6657 36.4416C24.3708 36.3762 25.2408 36.5801 25.9447 36.6885C26.826 36.83 27.6986 37.0223 28.558 37.2643C29.2365 37.4521 30.0267 37.6959 30.6016 38.1181C30.8287 38.3558 30.8517 38.379 30.8396 38.7133C30.8361 38.7845 30.8198 38.8544 30.7916 38.9198C31.0092 39.1263 31.1829 39.2766 31.1878 39.5983C31.1901 39.7505 30.9831 40.0715 31.0012 40.1239C31.0429 40.2449 31.3657 40.54 31.4603 40.653L32.5991 42.1066L33.356 43.3449C34.4115 45.4782 35.1385 47.6209 35.0438 50.0386L34.961 51.3196C34.9065 51.6417 34.8758 51.9977 34.763 52.3046L34.5674 53.1341L33.9108 54.9802C33.6542 55.7161 33.1251 56.438 32.6956 57.0876C32.2036 57.7573 31.6442 58.5051 30.9751 59.0059C32.5854 59.1862 34.2203 59.3433 35.778 59.8172C36.1728 59.9374 36.5236 60.0697 36.7915 60.3964C36.818 60.4991 36.8472 60.5257 36.7878 60.6166C36.4331 61.159 34.83 61.4153 34.1946 61.5218L30.5804 61.9637L29.0912 62.0835C28.8323 62.1052 28.5432 62.1052 28.2934 62.1729C28.7233 62.2775 29.4488 62.3711 29.6994 62.7723C29.7346 62.829 29.7073 62.9073 29.6994 62.9724C29.3939 63.3614 28.8917 63.4383 28.427 63.493C27.3106 63.6246 26.134 63.628 25.0247 63.4238C24.7757 63.3778 24.3893 63.3059 24.1849 63.1469C24.1433 63.1112 24.1083 63.0683 24.0816 63.0203C24.11 62.8332 24.1195 62.7571 24.2799 62.6323L24.4658 62.5217C24.5274 62.4867 24.5036 62.5061 24.546 62.4509L19.8729 62.8811C19.9107 62.9682 19.8793 62.9374 19.9599 62.9746C20.1113 63.0446 20.221 63.0944 20.3115 63.2431L20.3334 63.4383C20.0148 63.8186 18.7844 63.8764 18.297 63.9175C16.9047 64.0346 12.0745 64.1487 11.0758 63.3417C11.0425 63.2333 11.0247 63.2051 11.0788 63.0971C11.1855 62.8845 11.4307 62.8027 11.6438 62.7453L12.185 62.6141C12.4753 62.6088 12.7871 62.538 13.0766 62.5C12.5358 62.3037 11.9644 62.217 11.4236 62.0189C9.79092 61.4202 8.279 60.5736 6.88971 59.5293C6.5597 59.2813 6.26716 58.9865 5.93601 58.7401L5.90119 58.7146C5.70894 58.5625 5.52955 58.3685 5.36152 58.1898C3.17445 55.8698 2.39711 52.772 2.48226 49.6492L2.52351 49.6324C2.62986 49.7412 2.66733 50.16 2.69949 50.317C2.79978 50.8358 2.92609 51.3491 3.07795 51.8551C4.04148 54.9593 6.30084 57.5577 9.15777 59.0592C12.7788 60.9608 17.307 61.0795 21.1626 59.8579C24.4468 58.8158 27.4809 56.368 29.0617 53.2782C30.3862 50.6878 30.9626 47.8016 30.6262 44.9031C30.4828 43.6701 30.1777 42.4819 29.8053 41.301C29.0825 41.5783 28.363 41.7536 27.6027 41.8932C24.2228 42.5147 20.5257 42.4523 17.1242 42.056C15.0771 41.8156 12.7307 41.4638 11.0031 40.243C10.8661 40.146 10.8786 40.1376 10.8517 39.9767L11.5148 40.1631L11.6185 40.1042L11.5992 40.0387C11.2635 39.9014 10.9002 39.7991 10.5811 39.6276L10.5433 39.6071L13.1338 39.1397C15.5131 38.8217 17.9651 38.6384 20.3649 38.6559C20.6339 38.6578 21.1725 38.6004 21.3867 38.7297L21.3833 39.145C21.4389 38.9271 21.4162 38.6692 21.4211 38.4437L21.4828 37.3525L21.5085 36.488L21.5434 36.3332C21.5377 35.7392 21.493 35.1101 21.5899 34.5236L21.3746 34.4282C20.9322 34.2133 20.5658 33.774 20.4114 33.3047C20.2755 32.8947 20.4133 32.5026 20.595 32.1363Z" fill="black"/>
<path d="M23.6657 36.4416C24.3708 36.3762 25.2408 36.5801 25.9447 36.6885C26.826 36.83 27.6986 37.0223 28.5579 37.2643C29.2365 37.4521 30.0267 37.6959 30.6016 38.1181C30.8287 38.3558 30.8517 38.379 30.8396 38.7133C30.8361 38.7845 30.8198 38.8544 30.7916 38.9198C29.9563 39.8163 28.6768 40.1312 27.5297 40.4134C23.3323 41.2725 18.8208 41.3801 14.5802 40.7785C13.552 40.6328 12.5074 40.4769 11.5148 40.1646L11.6185 40.1057L11.5992 40.0403C11.2635 39.903 10.9002 39.8007 10.5811 39.6291L10.5433 39.6086L13.1338 39.1412C15.5131 38.8232 17.9651 38.6399 20.3649 38.6574C20.6339 38.6593 21.1725 38.6019 21.3867 38.7312L21.3833 39.1465C21.3833 39.3108 21.3348 39.6839 21.4434 39.7972C21.6705 40.0372 22.209 40.0817 22.5171 40.0977C22.8436 40.0503 23.1576 39.9385 23.4409 39.7687L23.4909 38.7799C24.6121 38.8482 25.7287 38.9788 26.8356 39.1712C27.5316 39.2944 28.2359 39.4257 28.8698 39.7524C29.3777 39.5431 29.8595 39.2751 30.3056 38.9537L30.3658 38.8293C30.4491 38.614 30.3787 38.4513 30.2901 38.2588C29.7156 37.7819 28.9519 37.5708 28.2431 37.3807C26.7368 36.976 25.2677 36.7915 23.7263 36.5949L23.6657 36.4416Z" fill="white"/>
<path d="M18.4109 39.6436C18.7576 39.5991 19.1754 39.6135 19.522 39.6542C19.8248 39.69 20.1033 39.7588 20.3039 40.0125L20.2343 40.1213C20.0307 40.2582 19.7139 40.2399 19.4728 40.2544C18.9491 40.3213 18.3163 40.3358 17.7959 40.2434C17.6445 40.2163 17.5583 40.1916 17.4349 40.0958L17.4303 39.9288C17.5522 39.8086 17.6093 39.7862 17.7747 39.7413C17.9837 39.6907 18.1965 39.658 18.4109 39.6436Z" fill="white"/>
<path d="M20.5949 32.1363C20.8939 31.7971 21.2167 31.5495 21.6421 31.3886C22.4429 31.0844 23.324 31.1718 24.0877 31.529C24.3257 31.7138 24.5797 31.8922 24.7924 32.1048C24.8926 32.2645 25.0084 32.4227 25.0656 32.6038C25.1549 33.0936 25.1413 33.3777 24.8514 33.7915C24.6262 34.1114 24.3216 34.324 23.987 34.5168C23.9439 34.5415 23.8474 34.5902 23.8281 34.6362C23.7883 34.7336 23.8016 34.9983 23.7929 35.1173C23.7596 35.5604 23.7308 36.002 23.6657 36.4416L23.7259 36.5938C25.2673 36.7904 26.7365 36.9741 28.2427 37.3795C28.9515 37.5697 29.7152 37.7807 30.2897 38.2577C30.3787 38.4513 30.4491 38.614 30.3654 38.8282L30.3053 38.9525C29.8592 39.274 29.3773 39.542 28.8694 39.7512C28.2355 39.4245 27.5312 39.2948 26.8352 39.1701C25.7284 38.9777 24.6117 38.847 23.4905 38.7787L23.4405 39.7676C23.1572 39.9373 22.8432 40.0491 22.5167 40.0965C22.2087 40.0806 21.6716 40.0361 21.4431 39.7961C21.3344 39.682 21.3817 39.3097 21.3829 39.1454C21.4385 38.9274 21.4158 38.6696 21.4207 38.444L21.4824 37.3529L21.5082 36.4884L21.543 36.3336C21.5373 35.7395 21.4926 35.1105 21.5895 34.524L21.3742 34.4286C20.9318 34.2137 20.5654 33.7744 20.411 33.3051C20.2755 32.8947 20.4133 32.5026 20.5949 32.1363Z" fill="url(#paint0_linear_238_111)"/>
<path d="M21.2943 31.7184L21.4612 31.7944C21.4559 31.8625 21.4669 31.8777 21.4207 31.931C21.0949 32.3063 20.9923 32.6616 21.0305 33.1594C21.0464 33.3674 21.1846 33.7386 21.085 33.9227C20.9551 33.8178 20.8404 33.695 20.7444 33.558C20.6524 33.4228 20.5885 33.2703 20.5567 33.1096C20.5248 32.949 20.5256 32.7835 20.559 32.6231C20.6487 32.193 20.9352 31.9355 21.2943 31.7184Z" fill="#8C449A"/>
<path d="M21.5895 34.5252L21.6198 35.3779C21.7541 35.2257 21.6402 35.0831 21.8416 35.0006L22.8286 35.2349L22.5171 40.0977C22.209 40.0817 21.672 40.0372 21.4434 39.7972C21.3348 39.6831 21.3821 39.3108 21.3833 39.1465C21.4389 38.9286 21.4162 38.6707 21.4211 38.4452L21.4828 37.354L21.5085 36.4896L21.5433 36.3348C21.5373 35.7407 21.4926 35.1116 21.5895 34.5252Z" fill="#3E134D"/>
<path d="M21.2943 31.7184C21.4836 31.5662 21.8885 31.4719 22.1345 31.4989C22.2242 31.5088 22.2393 31.5396 22.3127 31.5727L22.3661 31.5849C22.4418 31.6043 22.474 31.6343 22.5345 31.6845L22.5841 31.6796C22.9436 31.6545 23.3758 31.8857 23.6407 32.1185C23.8546 32.3064 23.9745 32.4824 23.9859 32.7753C24.0014 33.1781 23.881 33.5512 23.5983 33.8402C23.2135 34.2354 22.7162 34.3384 22.1844 34.3381C21.7208 34.3381 21.4177 34.2491 21.0869 33.922C21.1865 33.7379 21.0491 33.3667 21.0324 33.1587C20.9946 32.6608 21.0968 32.3056 21.4226 31.9302C21.4688 31.877 21.4578 31.8618 21.4631 31.7937L21.2943 31.7184Z" fill="#3E134D"/>
<path d="M23.4909 38.7791L23.4984 38.735L23.5851 37.3959C25.0777 37.5545 26.5416 37.6963 28.013 38.0131C28.5867 38.1368 29.2717 38.2824 29.7917 38.5494C29.9915 38.6517 30.1297 38.8225 30.3064 38.9537C29.8603 39.2751 29.3784 39.5431 28.8705 39.7524C28.2366 39.4257 27.5323 39.296 26.8364 39.1712C25.7293 38.9786 24.6124 38.8477 23.4909 38.7791Z" fill="#BDBDBD"/>
<path d="M60.4633 36.4066L60.5068 36.5405L60.8803 36.5751C60.9617 36.7486 60.729 37.429 60.6843 37.6446C60.5833 37.7427 60.5197 37.729 60.3815 37.7462L60.1764 37.6476C60.3857 37.4111 60.4096 36.7314 60.4633 36.4066Z" fill="white"/>
<path d="M73.1952 47.3802C73.2281 47.4851 73.2459 47.5407 73.2114 47.6464C73.1055 47.9666 73.1183 48.299 73.1619 48.6314L73.1675 48.6748L73.0377 48.5607C72.8322 48.4025 72.6903 48.4253 72.456 48.4508C72.4019 48.5116 72.3319 48.5337 72.2596 48.5672L72.2528 48.4789C72.3576 48.2507 72.4799 48.0008 72.6631 47.8263C72.8224 47.6741 73.009 47.5764 73.1634 47.4132L73.1952 47.3802Z" fill="white"/>
<path d="M72.2131 45.8836C72.3845 45.9977 72.4803 46.3685 72.5571 46.5636L73.0869 46.7735L72.5745 47.1265C72.6086 47.3121 72.6657 47.5114 72.6426 47.7004L72.5533 47.7483C72.434 47.6385 72.3062 47.5384 72.1711 47.449L72.1374 47.3904C71.8903 47.3307 71.8172 47.5353 71.5932 47.5045L71.6575 46.9721L71.2836 46.567L71.7979 46.4617C71.9492 46.3035 72.0794 46.1263 72.1855 45.9345L72.2131 45.8836Z" fill="#F68104"/>
<path d="M47.5585 35.252L47.9176 35.2056C48.0614 35.3824 48.0334 36.0236 48.0493 36.2633L48.2632 39.3515L47.809 39.4496L47.5585 35.252Z" fill="#C24404"/>
<path d="M21.543 36.3347L21.5082 36.4895C19.0157 36.4766 16.5656 36.4964 14.0826 36.7558C12.6179 36.9079 11.1091 37.114 9.71788 37.6187C9.43063 37.7233 8.96816 37.8557 8.75812 38.0751C8.6654 38.1713 8.63702 38.2995 8.60863 38.4262C8.65518 38.5608 8.71536 38.6319 8.81262 38.7342C9.25352 39.145 9.95403 39.4949 10.544 39.609L10.5819 39.6295C10.9009 39.801 11.2631 39.9033 11.5999 40.0406L11.6192 40.1061L11.5155 40.165L10.8525 39.9786C10.6303 39.8554 10.3446 39.7885 10.1039 39.7006C9.26184 39.3895 8.5969 39.0008 8.0315 38.2885L7.99365 37.9374L8.35583 38.2615L8.37551 38.239L8.40843 38.201L8.53559 38.0569C8.80959 37.7819 9.28531 37.6218 9.64559 37.4906C11.111 36.9581 12.73 36.7657 14.2748 36.6158C16.7067 36.3831 19.1008 36.3344 21.543 36.3347Z" fill="white"/>
<path d="M69.9651 17.7791L70.7246 17.9388C70.4646 19.5202 70.3462 21.1613 70.5997 22.7529C70.6478 23.0743 70.7175 23.3919 70.8083 23.7038C70.8768 23.932 70.9877 24.1788 70.9884 24.418C70.82 24.3309 70.6391 23.8152 70.5721 23.6425C70.0207 22.2228 69.8943 20.7566 69.9219 19.2448C69.9303 18.8261 70.0907 18.156 69.9651 17.7791Z" fill="#C24404"/>
<path d="M13.3741 13.9085L13.8055 13.8085L13.8786 13.8579L14.7418 21.6546C14.5953 21.6512 14.4492 21.6385 14.3043 21.6165L13.3741 13.9085Z" fill="#C24404"/>
<path d="M79.9963 36.6177L80.9424 36.4656C81.3659 37.1718 81.7073 37.923 82.0944 38.6486L84.6978 43.6176L85.5683 45.31C85.6731 45.5242 85.8332 45.7797 85.8494 46.0216C85.7957 46.0163 85.7571 45.9532 85.7227 45.9132C85.4668 45.6143 85.1713 44.8358 84.8322 44.6859C84.8377 44.6415 84.8377 44.5965 84.8322 44.5521C84.8011 44.4269 84.5956 44.1778 84.5203 44.0576L83.5447 42.4762L80.7597 37.9454C80.4906 37.5134 80.2873 37.0319 79.9963 36.6177Z" fill="#C24404"/>
<path d="M26.847 16.813C26.9567 16.8152 27.0661 16.8256 27.1743 16.8442C27.1634 17.2383 27.0737 17.6387 27.0229 18.0301L26.5219 21.4819L25.6087 29.1679L25.0656 32.6038C25.0084 32.4227 24.8926 32.2645 24.7924 32.1048C24.8109 30.8946 25.0796 29.6235 25.2234 28.4183L26.847 16.813Z" fill="#2C0047"/>
<path d="M69.6267 45.0906L70.0589 45.0678C70.0839 45.091 70.1195 45.1058 70.1346 45.1378C70.2659 45.3933 70.2743 46.0475 70.3193 46.359L70.7753 49.143L65.5357 49.8374L65.6556 50.9023C65.7559 50.9374 65.8613 50.9552 65.9675 50.9552L65.4335 50.9971L65.2083 48.8471C65.4793 48.6892 66.1862 48.7048 66.5181 48.6603L70.1914 48.145C70.1149 47.6095 69.9405 45.4249 69.6267 45.0906Z" fill="#2C0047"/>
<path d="M45.5046 53.9982C45.8131 54.2823 46.0787 54.6512 46.3372 54.9829L50.0914 48.3511C50.2103 48.6687 50.4756 49.1396 50.4582 49.4739L46.4886 56.3151C46.2994 56.0238 46.0628 55.7215 45.9107 55.4092C45.7094 54.9977 45.6182 54.4455 45.5046 53.9982Z" fill="#C24404"/>
<path d="M8.81262 38.7327C8.71536 38.6304 8.65518 38.5593 8.60863 38.4247C8.63702 38.298 8.6654 38.1698 8.75812 38.0736C8.96816 37.8542 9.43063 37.7218 9.71788 37.6172C11.1091 37.1125 12.6179 36.9068 14.0826 36.7543C16.5656 36.4964 19.0157 36.4766 21.5082 36.488L21.4824 37.3525C17.7796 37.3145 13.9512 37.3232 10.3393 38.2356C9.81362 38.3699 9.32466 38.5677 8.81262 38.7327Z" fill="#1E082D"/>
<path d="M79.9255 48.8802C80.0576 48.652 80.0466 48.3591 80.0716 48.1012L80.1942 46.4708C80.2995 46.5967 80.4073 46.7028 80.4391 46.869C80.6253 47.0101 80.9148 47.3881 80.9481 47.6205C80.9535 47.6469 80.9535 47.674 80.9481 47.7004C81.1109 48.1393 80.9254 49.0315 80.8963 49.5187L80.5371 55.0178L75.0238 54.1754C75.0307 53.9275 75.0995 53.4943 74.9981 53.2737C75.4031 53.2623 75.833 53.3661 76.2356 53.4197L79.6697 53.9141L79.9346 50.1717C79.9551 49.8298 80.0951 49.1753 79.9255 48.8802Z" fill="#C24404"/>
<path d="M26.389 15.2537L27.0464 15.4142L26.847 16.813L25.2234 28.4183C25.0796 29.6235 24.8109 30.8946 24.7924 32.1048C24.5781 31.8922 24.3257 31.7138 24.0877 31.529C24.2069 31.3361 24.1921 30.9657 24.2179 30.7367L24.4128 29.223C25.0145 24.5758 25.4573 19.8465 26.389 15.2537Z" fill="#C24404"/>
<path d="M73.4616 37.7309C73.6183 37.7712 73.7781 37.7987 73.9392 37.8131C74.055 38.2638 73.9392 38.9921 73.9252 39.4671L73.8495 42.8045L65.2503 43.877L65.3158 45.2245L65.0509 45.2656L64.8144 42.7554L73.4979 41.6696L73.5305 38.9624C73.5335 38.5981 73.6073 38.0557 73.4616 37.7309Z" fill="#2C0047"/>
<path d="M35.2842 18.3378L35.9461 18.2077L40.0962 29.5996L41.8041 33.3523C42.077 33.898 42.4191 34.4392 42.6583 34.9987C42.7196 35.1409 42.7188 35.1862 42.6802 35.3345C42.5035 35.4486 42.2639 35.4615 42.0607 35.5L41.0094 35.7152L38.087 36.4078L37.8198 35.9134C39.0834 35.4117 40.4841 35.1436 41.7973 34.7857L35.2842 18.3378Z" fill="#C24404"/>
<path d="M8.81262 38.7327C9.32542 38.5684 9.81362 38.3699 10.3393 38.2383C13.9531 37.3255 17.7796 37.3183 21.4824 37.3552L21.4207 38.4463C21.4162 38.6718 21.4389 38.9297 21.3829 39.1476L21.3863 38.7323C21.1728 38.603 20.6343 38.6604 20.3645 38.6585C17.9647 38.641 15.5127 38.8244 13.1334 39.1423L10.5429 39.6097C9.95403 39.4922 9.25352 39.1434 8.81262 38.7327Z" fill="#BDBDBD"/>
<path d="M73.3768 50.365L73.7715 50.3041C73.9074 50.4365 73.8011 50.5262 73.8711 50.6464C73.9611 50.802 74.1822 50.6255 74.2976 50.8195L74.2703 54.323C70.9899 54.3911 67.6906 54.706 64.4499 55.2191L61.3996 55.7644C60.8917 55.8629 60.3475 56.0272 59.8335 56.0619C59.7336 55.9185 59.7658 55.7325 59.7616 55.5591C59.7616 55.4119 59.751 55.2655 59.7874 55.1217C60.0829 55.0156 60.4126 54.9867 60.7203 54.9281L62.3203 54.6117C65.9939 53.9385 69.7059 53.4975 73.4343 53.2912L73.4631 51.3496C73.4639 51.0473 73.5259 50.6354 73.3768 50.365Z" fill="#C24404"/>
<path d="M67.9124 24.3492C68.1818 24.5466 68.3128 25.1829 68.4422 25.5058C68.5012 25.6533 68.6231 25.8648 68.6458 26.0207C68.6524 26.06 68.6488 26.1003 68.6356 26.1379C68.3873 26.7414 68.0857 27.383 67.683 27.8976C67.0631 28.6887 66.1386 29.2539 65.2265 29.6387C64.2735 30.0407 63.0739 30.2438 62.0422 30.3058C61.7107 30.3256 61.3754 30.3176 61.0435 30.3142C60.9265 30.3142 60.7785 30.2861 60.6741 30.3416L60.5057 34.3396L57.3615 34.3841L57.2203 33.5922L60.0875 33.5264C60.1984 33.1461 60.1375 32.5269 60.1477 32.1192L60.24 28.6876L62.264 28.5833C64.0427 28.4069 65.8214 27.7725 66.9776 26.3394C67.3212 25.9119 67.9706 24.9033 67.9124 24.3492Z" fill="#2C0047"/>
<path d="M81.5408 18.8481C81.7137 18.9919 82.222 19.2049 82.2761 19.3985C82.1698 19.8754 76.9214 26.0949 76.261 26.8631C75.9692 27.2024 74.6181 28.589 74.5406 28.8583C74.5103 28.9656 74.5383 29.1941 74.5375 29.3147L74.5303 30.5059L74.4739 36.1237L69.6907 35.9521C69.7055 35.7194 69.7558 35.4303 69.6744 35.2105C69.7153 35.1812 69.7936 35.1059 69.8372 35.0926C69.9405 35.0603 70.2024 35.0968 70.3242 35.0983L71.8634 35.1496L73.7818 35.1763L73.8506 29.1515L73.8692 28.2897C73.8692 28.235 73.8567 28.0783 73.8752 28.0398C73.9131 27.9585 74.052 27.8337 74.114 27.7626L74.7419 27.0597L76.6936 24.8158L81.5408 18.8481Z" fill="#C24404"/>
<path d="M58.758 35.3326L60.6502 35.4589L60.4637 36.4067C60.4099 36.7315 60.388 37.4111 60.1779 37.6477L60.3831 37.7462C60.1602 37.756 59.6171 37.7142 59.468 37.8675L59.3253 38.0481C59.1361 38.1269 58.9877 38.1763 58.7799 38.1881L58.6403 38.2018C58.5188 38.5479 58.515 38.9503 58.4511 39.3131L57.9386 42.0667L56.8752 47.1341C56.4275 49.1548 55.0681 55.7264 53.5725 56.9142L53.0544 55.5754L53.3571 55.4549C54.2177 54.2842 54.5379 52.7622 54.9178 51.382L56.3401 45.4458L57.3914 40.6701L58.758 35.3326Z" fill="#C24404"/>
<path d="M58.7796 38.1873C58.8931 38.0006 58.9616 37.769 59.0392 37.5628L60.1776 37.6469L60.3827 37.7454C60.1598 37.7553 59.6167 37.7134 59.4676 37.8667L59.3249 38.0474C59.1349 38.1269 58.9873 38.1763 58.7796 38.1873Z" fill="white"/>
<path d="M93.2962 38.347L94.5886 38.6513C94.052 40.0642 93.7076 41.4429 93.3594 42.9109L92.2619 48.1146L90.7943 56.859L87.5135 55.942C87.2421 55.8728 86.4648 55.7739 86.3073 55.5617L85.7696 54.8391C85.9993 54.7607 86.43 54.9406 86.6779 55.0026L89.8606 55.8663C90.1634 54.5664 90.3223 53.2014 90.5551 51.8843L92.1654 43.3118L92.7766 40.6168L93.1498 39.2051C93.2243 38.9274 93.3462 38.6346 93.2962 38.347Z" fill="#C24404"/>
<path d="M54.1806 22.273C54.7184 23.7509 55.0004 25.2448 54.2991 26.7372C53.6209 28.1802 52.1775 28.972 50.7348 29.4756C49.6434 29.8559 48.5576 30.0617 47.4177 30.2229L47.359 34.0798C47.2455 34.1859 47.2111 34.2342 47.0563 34.2631C46.5545 34.3563 45.9209 34.2913 45.4043 34.3038L42.9493 34.4035L42.8596 33.1046C42.7317 33.0366 42.6 33.0309 42.4585 33.0156L43.2869 32.9982L45.7351 32.8552C45.8804 32.8441 46.3244 32.8407 46.4258 32.7715C46.4553 32.7517 46.4746 28.8294 46.4875 28.8161C46.5098 28.7948 47.2092 28.7484 47.2773 28.74C47.7316 28.6916 48.1825 28.6154 48.6276 28.5118C50.1036 28.1817 51.7116 27.5017 52.7773 26.3953C53.896 25.2376 54.209 23.8335 54.1806 22.273Z" fill="#2C0047"/>
<path d="M75.2324 46.6499L75.2782 46.6359C75.5737 46.5427 75.8421 46.3886 76.1354 46.2936C76.8461 46.0616 77.5046 46.1308 78.1616 46.4761C79.1554 46.9983 79.5214 47.9008 79.9255 48.8809C80.0955 49.1761 79.9551 49.8317 79.9327 50.1714L79.6678 53.9138L76.2338 53.4193C75.8311 53.3657 75.4012 53.2619 74.9962 53.2733L75.0087 53.2448C75.0901 53.0436 75.0708 52.785 75.0776 52.5682L75.1181 51.3161L75.2316 48.2233C75.2471 47.7863 75.3073 47.3269 75.2899 46.8922C75.284 46.8088 75.2646 46.727 75.2324 46.6499Z" fill="#FF6100"/>
<path d="M75.2324 46.6499C75.3247 46.4244 75.3001 46.1593 75.3081 45.9174L75.3591 44.4669L75.6082 37.2026L79.9982 36.6185C80.2892 37.0326 80.4925 37.5141 80.76 37.9469L83.545 42.4778L84.5207 44.0592C84.5964 44.1793 84.8015 44.4284 84.8325 44.5536C84.838 44.598 84.838 44.643 84.8325 44.6875L84.7735 44.7894C84.1245 44.9491 83.5401 45.2077 82.9505 45.5154C82.317 45.8463 81.7523 46.2803 81.1317 46.6275C80.9114 46.7503 80.7002 46.8918 80.4395 46.8698C80.4077 46.7036 80.2998 46.5974 80.1946 46.4716L80.072 48.102C80.047 48.3599 80.058 48.6539 79.9259 48.8809C79.5217 47.9008 79.1558 46.9983 78.162 46.4761C77.505 46.1308 76.8465 46.0616 76.1357 46.2936C75.8424 46.3894 75.5741 46.5434 75.2785 46.6359L75.2324 46.6499Z" fill="#FF6100"/>
<path d="M76.8593 37.5332L77.0065 37.5609V37.5948C77.0221 37.9827 77.3721 38.2303 77.6355 38.4695C77.2949 38.5144 77.1416 38.5076 76.8904 38.7571L76.7011 38.727L76.6909 38.6152C76.4828 38.3646 76.2269 38.1888 75.9654 37.9998C76.261 37.8945 76.6739 37.7926 76.8593 37.5332Z" fill="#2C0047"/>
<path d="M77.6473 40.7644C78.1665 40.6883 78.7107 40.718 79.1577 41.0253C79.5316 41.2828 79.773 41.735 79.8529 42.1766C79.9452 42.69 79.8567 43.1471 79.5558 43.5777C79.2413 44.0287 78.7853 44.3307 78.2448 44.4182C77.9932 44.5228 77.5674 44.4345 77.3207 44.3421C76.8756 44.1744 76.4881 43.8393 76.3053 43.3955C76.1138 42.9349 76.1974 42.3199 76.3938 41.8742C76.6489 41.2953 77.0724 40.9804 77.6473 40.7644Z" fill="#FF7E36"/>
<path d="M57.8081 11.3434C59.5577 11.8667 62.1856 11.6895 63.6775 10.5493C63.959 10.3302 64.2131 10.0777 64.4344 9.79739C64.5335 9.67455 64.8166 9.20903 64.9203 9.16301C64.9602 9.15126 65.0014 9.14449 65.0429 9.14285L65.15 9.24744L65.1209 9.29232C64.8246 9.75442 64.6562 10.2842 64.3432 10.7459C62.6704 13.218 60.2181 14.5925 57.3581 15.2364C52.9351 16.2329 47.4574 16.1329 43.5181 13.6391C42.3071 12.8742 40.9984 11.6157 40.4527 10.261C42.0728 11.0468 43.7675 11.3967 45.5618 11.4138C46.0988 11.4187 46.6593 11.3377 47.1914 11.3811C47.4268 11.0525 47.5653 10.668 47.8132 10.3466C48.4728 10.8159 49.2297 11.0673 49.9991 11.2894C50.0305 11.0764 50.0956 10.8855 50.2777 10.7547L50.3832 10.6904L50.4366 10.6592C50.7185 10.5113 51.9534 10.5238 52.2634 10.6349C52.3505 10.6702 52.4295 10.723 52.4957 10.7899C52.562 10.8569 52.614 10.9366 52.6487 11.0243C52.6832 11.1194 52.6996 11.2202 52.6971 11.3214C54.1008 11.3069 55.6551 10.8923 56.8862 10.2215L57.8081 11.3434Z" fill="white"/>
<path d="M52.7013 12.4469L52.7255 12.9592C52.671 13.1494 52.5839 13.2517 52.4151 13.3551C52.0719 13.5666 50.9835 13.5867 50.6012 13.4593C50.4973 13.4256 50.4015 13.3704 50.32 13.2973C50.2384 13.2242 50.173 13.1348 50.1278 13.0349L50.113 13.0003L50.7227 13.3426C51.0489 13.1904 51.3354 12.9919 51.631 12.7888L50.8306 12.7405C51.1227 12.7192 51.458 12.7785 51.7415 12.7215C51.8675 12.6968 51.9073 12.6606 51.9761 12.5568C52.1945 12.5709 52.3277 12.51 52.5185 12.4191L52.7013 12.4469Z" fill="black"/>
<path d="M47.1918 11.2291C47.4272 10.9005 47.5657 10.516 47.8136 10.1946C48.4732 10.6639 49.2301 10.9153 49.9995 11.1374C50.057 11.738 49.9734 12.3298 50.0778 12.9311C49.4394 12.712 48.7911 12.5701 48.1886 12.2465C47.7398 12.0065 47.3473 11.7349 47.1918 11.2291Z" fill="#FF6100"/>
<path d="M49.9995 11.1374C50.0309 10.9245 50.096 10.7335 50.278 10.6027L50.3836 10.5384L50.437 10.5072C50.7189 10.3593 51.9538 10.3718 52.2638 10.4829C52.3509 10.5183 52.4299 10.571 52.4961 10.6379C52.5623 10.7049 52.6144 10.7846 52.649 10.8723C52.6836 10.9674 52.7 11.0682 52.6975 11.1694L52.7013 12.4469L52.5185 12.4187C52.3292 12.5096 52.1945 12.5709 51.9761 12.5564C51.9073 12.6603 51.8675 12.6964 51.7415 12.7211C51.458 12.7766 51.1227 12.7188 50.8306 12.7401L51.631 12.7884C51.3354 12.9915 51.0489 13.1897 50.7227 13.3422L50.113 12.9999L50.0778 12.9307C49.9734 12.3298 50.057 11.738 49.9995 11.1374Z" fill="black"/>
<path d="M50.8306 12.7401C50.6546 12.5078 50.7462 11.5486 50.7473 11.2188L52.025 11.2341L52.0723 11.9255C52.2808 12.0396 52.4329 12.0993 52.5018 12.3518L52.5185 12.4169C52.3292 12.5078 52.1945 12.569 51.9761 12.5545C51.9073 12.6584 51.8675 12.6945 51.7415 12.7192C51.458 12.7767 51.1227 12.7188 50.8306 12.7401Z" fill="#FF6100"/>
<path d="M56.8866 10.0695L57.8081 11.1903C56.9717 12.2868 55.1862 12.696 53.8873 12.8725L52.7255 12.9592L52.7013 12.4469L52.6975 11.1694C54.1012 11.1549 55.6554 10.7404 56.8866 10.0695Z" fill="#FF6100"/>
<path d="M70.9884 24.4195C71.2329 24.6143 71.2931 25.0235 71.6057 25.1517C71.7517 25.2118 71.9625 25.2247 72.1056 25.1498C72.439 24.9763 72.6653 24.6295 72.8394 24.31C73.501 23.1032 73.9097 21.7154 74.3752 20.4204L76.0025 16.0174L80.1961 17.997C80.6427 18.2081 81.218 18.3834 81.6009 18.6846L81.5389 18.8497L76.6947 24.8162L74.743 27.0601L74.1156 27.7626C74.0535 27.8337 73.9142 27.9585 73.8768 28.0399C73.8582 28.0779 73.8722 28.235 73.8707 28.2897L73.8522 29.1515L73.7821 35.177L71.8638 35.1504L70.3246 35.0991C70.2027 35.0991 69.9409 35.061 69.8375 35.0934C69.794 35.1067 69.7157 35.182 69.6748 35.2113C69.6298 35.1805 69.6582 35.1942 69.5753 35.1835C69.4754 35.171 69.4867 35.1546 69.4239 35.082L70.1657 28.0265C69.8219 27.7119 69.5086 27.3651 69.2301 26.9909C69.0314 26.719 68.8948 26.3535 68.6375 26.1379C68.6507 26.1003 68.6542 26.06 68.6477 26.0207C68.625 25.8648 68.5031 25.6533 68.4441 25.5058C68.3147 25.1829 68.1837 24.5466 67.9143 24.3492C68.0531 24.0251 67.7693 23.2782 67.705 22.9005L67.4548 20.9833C67.4874 20.568 67.4325 20.1131 67.417 19.6955L67.367 17.4923C67.9551 17.4984 69.4818 17.5147 69.9651 17.7791C70.0907 18.156 69.9303 18.8261 69.9223 19.2448C69.8947 20.7566 70.0211 22.2228 70.5725 23.6425C70.6391 23.8152 70.82 24.3309 70.9884 24.4195Z" fill="#FF6100"/>
<path d="M68.0172 18.1354C68.4244 18.1777 69.2105 18.164 69.5492 18.369L69.5704 18.4808C69.3028 18.7348 68.8343 18.6785 68.4937 18.6709C68.3533 18.8611 68.309 19.5814 68.2624 19.8439L68.1413 18.763C68.1281 18.5972 68.1383 18.3473 68.0562 18.2012L68.0172 18.1354Z" fill="#2C0047"/>
<path d="M76.2137 17.1405C76.8264 17.201 77.4929 17.5353 78.0367 17.8167C78.0181 18.0038 77.8164 18.3001 77.7264 18.4758C77.3893 18.2178 77.0339 17.9849 76.6629 17.7791C76.5581 18.1628 76.3874 18.936 76.1013 19.2053C76.1134 19.2369 76.1181 19.2708 76.1153 19.3046C76.1058 19.5506 75.7164 20.7148 75.545 20.8449L75.4356 20.7646C75.2842 20.4018 75.856 18.5298 75.9904 18.0715C76.0756 17.7825 76.2602 17.4413 76.2137 17.1405Z" fill="#2C0047"/>
<path d="M85.8494 46.022C86.0054 46.1186 86.0765 46.3042 86.1651 46.4613L86.8175 47.6521L87.9461 37.1285L90.9846 37.7846L92.5741 38.1379C92.8012 38.1915 93.096 38.228 93.2977 38.3467C93.3477 38.6342 93.2258 38.9271 93.1528 39.2024L92.7796 40.6142L92.1677 43.3096L90.5574 51.8821C90.3246 53.1992 90.1653 54.5641 89.8629 55.8641L86.6801 55.0004C86.4319 54.9384 86.0012 54.7585 85.7719 54.8368C85.3934 54.0762 84.7777 53.3627 84.3091 52.6484L81.1642 47.8506C81.1111 47.7773 81.0348 47.7243 80.9477 47.7004C80.9531 47.6741 80.9531 47.6469 80.9477 47.6205C80.9144 47.3882 80.6249 47.012 80.4387 46.869C80.6995 46.8911 80.9107 46.7496 81.1309 46.6268C81.7516 46.2795 82.3162 45.8456 82.9497 45.5147C83.5394 45.2062 84.1229 44.9484 84.7727 44.7886L84.8318 44.6867C85.1724 44.8366 85.4664 45.6151 85.7223 45.914C85.7571 45.954 85.7957 46.0171 85.8494 46.022Z" fill="#FF6100"/>
<path d="M89.2199 45.3884C89.2555 45.3885 89.2908 45.3952 89.324 45.4082C89.4712 45.4896 89.6139 45.5082 89.752 45.5835L89.6355 45.7782L89.7426 45.9733L89.6449 45.9836L89.4837 45.9243C89.417 45.942 89.3532 45.9696 89.2945 46.006L89.2366 46.0441C89.2366 45.8391 89.2203 45.8125 89.1079 45.6398C89.1562 45.5749 89.1915 45.5011 89.2116 45.4226L89.2199 45.3884Z" fill="white"/>
<path d="M90.1044 44.3866C90.2421 44.5007 90.16 44.5323 90.2323 44.6529C90.2701 44.7171 90.3757 44.8027 90.4298 44.859L90.398 44.913C90.2005 45.0241 89.9761 45.0651 89.7581 45.1226C89.7641 45.0237 89.7816 44.926 89.8103 44.8312C89.789 44.7402 89.7533 44.6531 89.7047 44.5734L89.6691 44.5247C89.7622 44.476 89.8519 44.4905 89.953 44.4946L90.0033 44.4969L90.1044 44.3866Z" fill="white"/>
<path d="M88.4184 37.9671C89.3982 38.0432 90.3943 38.4235 91.3476 38.6582C90.5377 38.7243 89.6915 38.3919 88.9024 38.4722C88.8661 38.6125 88.8075 38.7459 88.7287 38.8673C88.8869 39.1621 88.5573 40.9972 88.4528 41.4361C88.3835 40.6727 88.4301 39.8604 88.4448 39.0932C88.4509 38.7692 88.552 38.255 88.4184 37.9671Z" fill="#2C0047"/>
<path d="M48.7665 44.4304L48.8233 44.4969C49.3656 43.9782 49.7781 43.176 50.2489 42.5751C51.0592 43.5617 51.7389 44.7517 52.3266 45.884L53.9161 34.6644L58.7603 35.3315L57.3941 40.667L56.3427 45.4428L54.9205 51.3789C54.542 52.7591 54.2204 54.2812 53.3598 55.4518L53.057 55.5724L50.4586 49.4727C50.476 49.1384 50.2107 48.6676 50.0918 48.35L46.3376 54.9817C46.0795 54.6501 45.8138 54.2812 45.505 53.9971L44.7825 51.148C45.4168 50.1835 45.9338 49.4179 46.1862 48.2576C46.4545 47.0211 46.4606 45.3382 45.7525 44.2307C45.639 44.0428 45.6356 43.8644 45.6454 43.6499C45.6662 43.2015 45.8528 42.5002 46.2184 42.2047C46.6725 41.8335 47.5509 41.9541 48.0989 42.0187L48.6318 42.0659L48.7665 44.4304Z" fill="#FF6100"/>
<path d="M48.0966 42.0164L48.6295 42.0636L48.7665 44.4303C48.7824 44.7186 48.5546 44.954 48.399 45.1803C48.3154 44.9103 48.326 44.587 48.2972 44.3056L48.0966 42.0164Z" fill="#C24404"/>
<path d="M54.578 35.487L58.1298 35.9483L55.2013 36.2728L54.7472 37.6876L54.1636 39.5264C54.0826 39.7744 54.0345 40.0657 53.8854 40.2814L54.578 35.487Z" fill="#2C0047"/>
<path d="M53.8813 43.6465C54.1284 43.6613 54.3464 43.6845 54.567 43.8123C54.8229 43.9599 55.0431 44.2052 55.1135 44.4969C55.1892 44.8012 55.1544 45.1864 54.9882 45.4542C54.757 45.8265 54.4641 45.9376 54.0584 46.0342C53.8041 46.0342 53.5664 46.0144 53.3393 45.8821C53.0453 45.6996 52.8347 45.408 52.7531 45.0705C52.6861 44.7727 52.7648 44.5182 52.9242 44.2661C53.1664 43.8835 53.4483 43.7435 53.8813 43.6465Z" fill="#FF7E36"/>
<path d="M41.4431 22.8667L40.7554 17.8373C40.7783 17.8202 40.8039 17.8074 40.8311 17.7992C41.3466 17.6345 41.9862 17.5767 42.5243 17.4839C45.1258 17.0344 48.0289 16.6852 50.5517 17.6741C51.9557 18.2256 53.1539 19.3 53.7605 20.6958C53.9577 21.2066 54.0788 21.7379 54.1821 22.2745C54.2109 23.8338 53.8975 25.241 52.7819 26.3999C51.7161 27.5063 50.1089 28.1874 48.6321 28.5164C48.1871 28.62 47.7361 28.6962 47.2818 28.7446C47.2137 28.7514 46.5143 28.7978 46.492 28.8207C46.4791 28.8332 46.4598 32.7555 46.4303 32.776C46.3289 32.8453 45.885 32.8487 45.7396 32.8597L43.2914 33.0027L42.463 33.0202L42.4009 32.6258C42.4176 31.8937 42.2897 31.0665 42.2178 30.3344L41.8136 26.1706L41.4431 22.8667Z" fill="#FF6100"/>
<path d="M42.9913 27.0175C43.2063 27.0061 43.394 27.0175 43.5552 27.1697C43.7066 27.3157 43.7346 27.472 43.7516 27.6713C43.696 27.9258 43.5673 28.0429 43.3864 28.2167C43.2392 28.2369 43.0224 28.2411 42.902 28.1384C42.8383 28.0827 42.7864 28.0147 42.7493 27.9385C42.7123 27.8622 42.6908 27.7793 42.6863 27.6945C42.6742 27.3906 42.8017 27.2317 42.9913 27.0175Z" fill="#FF7E36"/>
<path d="M43.6881 18.1442C44.0094 18.1267 44.2936 18.1206 44.6111 18.1883C44.3341 18.3591 44.015 18.3922 43.7028 18.4572L42.3234 18.7573L42.2477 20.9966L41.3246 18.4165C42.0584 18.2096 42.9281 18.1974 43.6881 18.1442Z" fill="#2C0047"/>
<path d="M42.8093 23.417C42.8127 23.0123 42.8036 22.7705 43.1064 22.4753C43.33 22.2559 43.6131 22.1665 43.9227 22.176C44.0554 22.176 44.1866 22.2038 44.3081 22.2575C44.4295 22.3113 44.5385 22.3899 44.6281 22.4883C44.8904 22.7716 44.9388 23.1687 44.9226 23.5368C44.7655 23.8411 44.571 24.1408 44.2413 24.2743C44.1111 24.326 43.9715 24.3493 43.8316 24.3428C43.6917 24.3362 43.5548 24.2999 43.4299 24.2362C43.0602 24.059 42.9361 23.781 42.8093 23.417Z" fill="#FF7E36"/>
<path d="M45.8108 21.1548L45.751 20.2573C46.9125 20.0789 48.2049 19.953 49.2134 20.6897C49.5942 20.9681 49.9374 21.3887 50.0351 21.86C49.9007 21.6995 49.7512 21.5276 49.5851 21.4005C48.5754 20.6296 47.2428 20.8989 46.0939 21.0628L46.1696 23.9769C46.179 24.3952 46.2524 24.901 46.1624 25.3031C46.0401 25.2677 46.0053 25.2414 45.9239 25.1433L45.9145 24.0023L45.8108 21.1548Z" fill="#C24404"/>
<path d="M42.3975 32.6209L45.86 32.1307L45.9735 27.8668C47.6925 27.8607 49.4591 27.4253 50.9543 26.5623C52.6309 25.5944 53.7726 23.9833 53.8007 22.0049C53.8101 21.7619 53.8037 21.5187 53.7817 21.2766C53.7636 21.1244 53.692 20.8962 53.739 20.7517L53.7594 20.6943C53.9566 21.2051 54.0777 21.7364 54.181 22.273C54.2098 23.8323 53.8964 25.2395 52.7807 26.3984C51.715 27.5048 50.1077 28.1859 48.631 28.5149C48.1859 28.6185 47.735 28.6947 47.2807 28.7431C47.2126 28.7499 46.5132 28.7963 46.4909 28.8192C46.478 28.8317 46.4587 32.754 46.4292 32.7746C46.3278 32.8438 45.8838 32.8472 45.7385 32.8582L43.2903 33.0012L42.4619 33.0187L42.3975 32.6209Z" fill="#C24404"/>
<path d="M46.0939 21.0628C47.2428 20.8989 48.5754 20.6296 49.5851 21.4005C49.7512 21.5276 49.9007 21.6995 50.0351 21.86C50.1592 22.2783 50.1982 22.5476 50.1282 22.9789C49.895 23.7776 49.5756 24.2648 48.832 24.6717C48.3191 24.954 47.7604 25.1424 47.1819 25.2281C46.85 25.2449 46.4878 25.2342 46.1631 25.3042C46.2532 24.9022 46.1798 24.3948 46.1703 23.978L46.0939 21.0628Z" fill="#2C0047"/>
<path d="M47.1819 25.2281C47.085 25.0026 47.1286 24.6763 47.127 24.4294L47.1229 22.5442C47.5536 22.4894 47.9804 22.4118 48.4164 22.4221C49.0757 22.438 49.6559 22.473 50.1282 22.9789C49.895 23.7775 49.5756 24.2647 48.832 24.6717C48.3191 24.954 47.7604 25.1424 47.1819 25.2281Z" fill="#2C0047"/>
<path d="M56.535 32.8628C56.4214 32.5102 56.412 32.0162 56.3613 31.6423L55.934 28.3966L55.2123 22.7423L54.4887 17.6459C57.6851 17.0218 61.1752 16.2768 64.3099 17.614C65.678 18.197 66.7743 19.4126 67.3197 20.795L67.454 20.9852L67.7031 22.9024C67.7674 23.2801 68.0512 24.027 67.9123 24.3511C67.9706 24.9052 67.3212 25.9138 66.9776 26.3406C65.8218 27.7755 64.0423 28.4099 62.264 28.5845L60.24 28.6887L60.1477 32.1204C60.1374 32.5277 60.1984 33.1472 60.0875 33.5276L57.2203 33.5934L56.7019 33.5523C56.5584 33.4055 56.5637 33.0719 56.535 32.8628Z" fill="#FF6100"/>
<path d="M57.7952 26.4098H57.8997C58.0605 26.4121 58.2179 26.452 58.3281 26.5741C58.381 26.6286 58.4218 26.6937 58.4479 26.7651C58.474 26.8365 58.4847 26.9127 58.4794 26.9886C58.4458 27.3351 58.2524 27.5146 57.9965 27.7181L57.8092 27.7094C57.7254 27.699 57.6448 27.6706 57.573 27.626C57.5011 27.5814 57.4397 27.5218 57.3929 27.4511C57.3513 27.3862 57.3232 27.3135 57.3102 27.2373C57.2972 27.1612 57.2996 27.0832 57.3172 27.008C57.3759 26.7045 57.5583 26.5718 57.7952 26.4098Z" fill="#FF7E36"/>
<path d="M57.6688 21.5705H57.8035C58.003 21.5857 58.2085 21.6466 58.3269 21.8212C58.4204 21.9588 58.4405 22.1924 58.4004 22.3513C58.3247 22.6381 58.123 22.7663 57.8898 22.9131L57.6442 22.9089C57.5642 22.8988 57.4874 22.8715 57.4188 22.8289C57.3503 22.7863 57.2916 22.7294 57.2468 22.6621C57.1394 22.4962 57.0955 22.3236 57.1496 22.1296C57.2313 21.8413 57.4296 21.7192 57.6688 21.5705Z" fill="#FF7E36"/>
<path d="M56.9868 17.9772C57.4744 17.9572 57.9628 17.9749 58.4477 18.0301L56.1297 18.7322L56.1213 21.2678L56.0982 22.0996L55.2615 18.0301L56.9868 17.9772Z" fill="#2C0047"/>
<path d="M59.8453 25.0364L59.4729 25.003C59.4131 24.8109 59.4528 24.5846 59.4634 24.3857L59.5289 23.0447L59.5701 20.5018C60.6408 20.0873 61.7633 19.7647 62.8812 20.2356C63.5295 20.5087 63.9969 20.9031 64.2622 21.5622C63.374 20.8867 62.3968 20.633 61.2868 20.7954C60.8497 20.8593 60.4058 21.0126 60.0001 21.1879L59.8453 25.0364Z" fill="#C24404"/>
<path d="M59.8453 25.0364L60.0012 21.1868C60.4058 21.0115 60.8497 20.8582 61.2879 20.7943C62.3979 20.6319 63.3751 20.8856 64.2633 21.561C64.3838 21.8587 64.4469 22.1768 64.4491 22.4981C63.4939 22.1867 62.6704 22.0631 61.6751 22.2578C61.3027 22.3304 60.9489 22.4647 60.5818 22.5563L60.4387 25.0847L59.8453 25.0364Z" fill="#2C0047"/>
<path d="M60.4376 25.0863L60.5806 22.5579C60.9477 22.4662 61.3016 22.3319 61.674 22.2593C62.6689 22.0646 63.4928 22.1882 64.448 22.4997C64.2804 23.3801 63.9091 23.9069 63.1764 24.4066C62.4082 24.9307 61.3492 25.0969 60.4376 25.0863Z" fill="#2C0047"/>
<path d="M67.3197 20.7939L67.454 20.9841L67.7031 22.9013C67.7674 23.279 68.0512 24.0259 67.9124 24.35C67.9706 24.9041 67.3212 25.9127 66.9776 26.3394C65.8218 27.7744 64.0423 28.4088 62.264 28.5834L60.24 28.6876L60.1477 32.1192C60.1374 32.5266 60.1984 33.1461 60.0875 33.5264L57.2203 33.5922L56.7019 33.5512C56.5584 33.4047 56.5637 33.0712 56.535 32.8624C56.5624 32.8191 56.594 32.7786 56.6292 32.7415L59.2784 32.6555L59.3938 27.7284L60.4326 27.7535C62.3574 27.7664 64.4741 27.5253 65.8952 26.0831C66.9488 25.0148 67.4412 23.4741 67.4139 21.9916C67.4067 21.588 67.3246 21.1967 67.3197 20.7939Z" fill="#C24404"/>
<path d="M33.3836 18.7344L35.2842 18.3378L41.7988 34.7842C40.4856 35.1421 39.0849 35.4102 37.8213 35.9118L37.3445 34.6948L31.8948 35.2311L31.4179 36.6599C31.3422 36.9144 31.2745 37.3255 31.1348 37.5419C31.0005 37.7511 30.7715 37.9329 30.605 38.1177C30.0297 37.6956 29.2395 37.4518 28.5613 37.2639C27.702 37.0219 26.8295 36.8297 25.9481 36.6881L26.0579 36.1556C25.8838 36.1336 25.6912 36.1488 25.5614 36.0275L25.7627 35.3839L26.2479 33.8649L28.5038 26.8734L30.9293 19.2669L32.4972 18.9178L33.3836 18.7344Z" fill="#FF6100"/>
<path d="M37.5711 28.7903C37.687 28.7924 37.8022 28.8088 37.914 28.8393C38.0196 28.9447 38.1127 29.0451 38.1074 29.2048C38.0995 29.4448 37.9833 29.5228 37.833 29.6874L37.5537 29.6631C37.3865 29.549 37.3743 29.533 37.3017 29.344C37.3486 29.0728 37.3989 29.0044 37.5711 28.7903Z" fill="#FF7E36"/>
<path d="M32.537 19.5465L32.6804 19.5122C32.9117 19.4517 33.1517 19.4324 33.3896 19.4552L34.1844 19.6145C33.9195 19.6647 33.6648 19.7138 33.4112 19.8047L33.4755 20.8571L33.0025 19.8302L31.598 20.0276L30.8154 22.958L31.0614 19.6761L32.537 19.5465Z" fill="#2C0047"/>
<path d="M33.1247 29.1014C33.2118 28.1414 33.2579 26.9092 33.6046 26.0101L34.7309 28.9135L33.1247 29.1014Z" fill="#2C0047"/>
<path d="M32.8674 24.288C33.208 24.7348 33.3995 25.4837 33.6046 26.0101C33.2579 26.9092 33.2118 28.1399 33.1247 29.1014L32.389 29.1569L32.8674 24.288Z" fill="#2C0047"/>
<path d="M32.389 29.1569L31.7385 29.236L32.3107 22.9439C32.3977 23.0321 32.4424 23.215 32.4904 23.3349L32.8689 24.2879L32.389 29.1569Z" fill="#C24404"/>
<path d="M25.7593 35.3855L29.7255 35.9137C29.8681 34.7024 30.2455 33.6462 30.6338 32.498L36.2447 31.8568L36.591 32.8708L32.515 33.2579C32.1665 33.2884 31.4932 33.2393 31.2094 33.3758L30.2515 36.6778L26.0552 36.1572C25.8812 36.1351 25.6885 36.1503 25.5587 36.029L25.7593 35.3855Z" fill="#C24404"/>
<path d="M28.4592 30.0362H28.7778C28.9534 30.0503 29.1472 30.1758 29.2513 30.3161C29.3177 30.4035 29.365 30.5038 29.3903 30.6108C29.4156 30.7177 29.4183 30.8288 29.3981 30.9368C29.3474 31.1874 29.1627 31.3114 28.9716 31.4521C28.838 31.4859 28.7 31.4987 28.5625 31.4902C28.4592 31.483 28.3067 31.4175 28.2416 31.338C28.0603 31.1194 28.0425 30.8908 28.0697 30.6154C28.097 30.3401 28.2624 30.2005 28.4592 30.0362Z" fill="#FF7E36"/>
<path d="M36.5902 32.8708L37.3444 34.6963L31.8947 35.2326L31.4179 36.6615C31.3422 36.9159 31.2745 37.327 31.1348 37.5434C31.0005 37.7526 30.7715 37.9344 30.605 38.1192C30.0297 37.6971 29.2395 37.4533 28.5613 37.2654C27.7019 37.0234 26.8294 36.8312 25.9481 36.6896L26.0579 36.1572L30.2542 36.6778L31.212 33.3758C31.494 33.2393 32.1691 33.2884 32.5177 33.2579L36.5902 32.8708Z" fill="#2C0047"/>
<path d="M59.5618 52.213L58.7024 39.1085C59.6595 38.9659 60.5802 38.6901 61.529 38.5159L68.8078 37.4833C70.2361 37.3312 71.6291 37.1589 73.0688 37.1878H73.4582C73.538 37.3061 73.5339 37.4187 73.5157 37.5598C73.5046 37.618 73.4864 37.6745 73.4616 37.7283C73.6073 38.0542 73.5335 38.5966 73.5297 38.9582L73.4972 41.6654L64.8136 42.7512L65.0501 45.2614L65.315 45.2203L69.1798 44.751L69.5155 44.7088C69.601 44.8229 69.6249 44.9442 69.6256 45.0891C69.9393 45.4234 70.1138 47.608 70.1906 48.1446L66.5174 48.66C66.1855 48.7045 65.4785 48.6889 65.2076 48.8467L65.4327 50.9967L65.9667 50.9548L73.3757 50.3634C73.5248 50.6339 73.4627 51.0457 73.4605 51.3481L73.4317 53.2897C69.7036 53.496 65.992 53.9371 62.3188 54.6102L60.7188 54.9266C60.4111 54.9852 60.0814 55.0141 59.7859 55.1202C59.748 55.2639 59.759 55.4104 59.7601 55.5575L59.6402 53.1965L59.5618 52.213Z" fill="#FF6100"/>
<path d="M59.5618 52.2129C59.7605 52.0133 59.8956 51.9292 60.1863 51.9307C60.4671 51.9326 60.5598 51.995 60.796 52.1331L60.8482 52.2312C60.8482 52.5678 60.8293 52.8207 60.578 53.0763C60.5168 53.1402 60.4427 53.1902 60.3607 53.223C60.2788 53.2558 60.1908 53.2706 60.1026 53.2664C59.9707 53.2595 59.8408 53.2297 59.7189 53.1786L59.6432 53.1972L59.5618 52.2129Z" fill="#FF7E36"/>
<path d="M61.9377 39.3131C62.0407 39.3017 62.1311 39.2868 62.2329 39.3161C61.5139 39.6204 60.8141 39.9315 60.0591 40.1338L59.8438 44.2451H59.7995L59.5346 39.617L61.9377 39.3131Z" fill="#2C0047"/>
<path d="M69.1809 44.754L69.5166 44.7118C69.6021 44.8259 69.626 44.9472 69.6267 45.0921C69.9405 45.4264 70.1149 47.611 70.1918 48.1476L66.5185 48.663C66.1866 48.7075 65.4797 48.6919 65.2087 48.8497L65.4339 50.9997C65.2968 51.0343 65.1562 51.0526 65.0149 51.0545C64.926 50.7837 64.9521 50.4171 64.9279 50.1303L64.7424 47.9556L69.5957 47.3646L69.1809 44.754Z" fill="#C24404"/>
<path d="M73.0688 37.1878H73.4582C73.538 37.3061 73.5339 37.4187 73.5157 37.5598C73.5046 37.618 73.4864 37.6745 73.4616 37.7283C73.6073 38.0542 73.5335 38.5966 73.5297 38.9583L73.4972 41.6654L64.8136 42.7512L65.0501 45.2614L64.459 45.3412L64.177 41.9389C64.4601 41.8514 64.7807 41.8354 65.0743 41.7959L66.528 41.5909L72.7259 40.8508L72.7478 38.5022C72.7569 38.0915 72.7384 37.6419 72.8182 37.2399L73.0688 37.1878Z" fill="#C24404"/>
<path d="M32.5994 42.1066L32.8829 41.6692C34.0027 40.0825 35.6456 39.1157 37.5378 38.789C39.1502 38.5166 40.807 38.7698 42.2658 39.5116C42.8804 39.8216 43.4262 40.2118 43.9855 40.6108L42.712 36.4652L47.5589 35.2523L47.809 39.45L48.2632 39.3519L49.4254 39.1419L50.4377 38.9792L48.6295 42.064L48.0966 42.0168C47.5486 41.9522 46.6718 41.8316 46.2161 42.2028C45.8505 42.5002 45.664 43.2015 45.6431 43.648C45.6333 43.8625 45.6356 44.0409 45.7502 44.2288C46.4583 45.3363 46.4523 47.0192 46.1839 48.2557C45.9315 49.4176 45.4146 50.1832 44.7803 51.1461C43.4784 52.7686 41.6796 53.7666 39.611 53.994C38.0162 54.1693 35.9733 53.975 34.5681 53.1311L34.7615 52.3012C34.8751 51.9943 34.905 51.6383 34.9595 51.3161L35.0423 50.0352C35.1369 47.6179 34.4099 45.4751 33.3544 43.3415L32.5994 42.1066Z" fill="white"/>
<path d="M36.2273 48.9418C36.4789 49.0201 36.6356 49.0593 36.8914 48.9859C36.9622 48.9657 36.9611 48.9764 37.0273 49.0003L37.0001 49.278C36.9925 49.4761 37.1794 49.6317 37.3028 49.7678L37.2752 49.8272L36.7889 49.9314L36.5822 50.2995L36.4937 50.2353C36.3578 49.896 36.2924 49.8496 35.9726 49.7051C35.9302 49.5149 36.1641 49.4902 36.2227 49.3438C36.2541 49.2681 36.2265 49.0342 36.2273 48.9418Z" fill="#2C0047"/>
<path d="M35.0423 50.0383L35.0874 50.4213C36.2121 51.3048 38.115 51.8205 39.5383 51.7144C39.2238 51.7775 38.5653 51.8041 38.3212 51.9871C37.1881 52.0274 36.0093 51.7231 34.9594 51.3184L35.0423 50.0383Z" fill="#BDBDBD"/>
<path d="M41.6895 45.4443C41.9116 45.5694 42.1012 45.7387 42.295 45.9007L43.0897 45.6664L42.8627 46.4484C42.994 46.6937 43.1654 46.9169 43.3274 47.1425L42.5451 47.2737L42.2609 47.8267L42.1901 47.894L41.8397 47.4376L41.0968 47.5209C41.1116 47.3136 41.2641 47.0363 41.3436 46.8386L40.8039 46.292C41.0094 46.2388 41.2959 46.1939 41.4703 46.0726C41.6448 45.9513 41.6569 45.6455 41.6895 45.4443Z" fill="#2C0047"/>
<path d="M49.4254 39.1416L50.4377 38.9788L48.6295 42.0636L48.0966 42.0164C47.5486 41.9518 46.6718 41.8312 46.2161 42.2024C45.8505 42.4998 45.664 43.2012 45.6431 43.6477C45.6333 43.8622 45.6356 44.0405 45.7502 44.2284C45.8138 45.0651 45.8615 45.9235 45.6711 46.7481L45.6488 46.7918C45.4346 47.2166 45.2972 47.6723 45.069 48.0929C44.2974 49.5149 42.8888 50.9723 41.3224 51.4907L41.2209 51.5227C41.4064 51.3283 41.7398 51.204 41.9706 51.0575C42.5998 50.656 43.1565 50.1501 43.6173 49.5613C44.4627 48.4717 44.904 46.9831 45.0217 45.6265C45.1156 44.5312 44.9282 42.9642 45.5674 42.0309C46.4659 40.7203 48.388 40.3415 49.4254 39.1416Z" fill="#BDBDBD"/>
<path d="M45.7502 44.2303C46.4583 45.3378 46.4523 47.0208 46.1839 48.2572C45.9315 49.4191 45.4146 50.1847 44.7803 51.1477C43.4784 52.7701 41.6796 53.7681 39.611 53.9955C38.0162 54.1709 35.9733 53.9765 34.5681 53.1326L34.7615 52.3027C34.8751 51.9958 34.905 51.6398 34.9595 51.3177C36.0093 51.7223 37.1882 52.0266 38.3212 51.9863C39.0225 52.1354 40.0791 51.9505 40.7392 51.7094C40.9072 51.6584 41.0707 51.6151 41.2221 51.5231L41.3235 51.4911C42.8888 50.9727 44.2974 49.5153 45.0702 48.0933C45.2972 47.6726 45.4357 47.2185 45.65 46.7922L45.6723 46.7484C45.8615 45.9254 45.8138 45.0667 45.7502 44.2303Z" fill="#C24404"/>
<path d="M41.2221 51.5246L41.3235 51.4926C42.8888 50.9742 44.2974 49.5168 45.0702 48.0948C45.2972 47.6742 45.4357 47.2201 45.6499 46.7937L45.6723 46.75C45.46 48.7566 44.1683 50.3984 42.6572 51.628C41.1759 52.8329 39.1304 53.1721 37.2782 52.9706C36.4646 52.8823 35.4995 52.6636 34.7627 52.3042C34.8762 51.9973 34.9061 51.6413 34.9606 51.3192C36.0104 51.7239 37.1893 52.0281 38.3224 51.9878C39.0236 52.1369 40.0803 51.9521 40.7403 51.7109C40.9072 51.66 41.0707 51.6166 41.2221 51.5246Z" fill="black"/>
<path d="M32.5994 42.1066L32.8829 41.6692C34.0027 40.0825 35.6456 39.1157 37.5378 38.789C39.1502 38.5166 40.807 38.7698 42.2658 39.5116C42.8804 39.8216 43.4262 40.2118 43.9855 40.6108L42.712 36.4652L47.5589 35.2523L47.809 39.45C46.8962 39.7208 46.2006 40.0243 45.7241 40.8975C45.5429 41.2295 45.3862 41.5772 45.1459 41.8723C44.4756 42.6953 43.3603 43.138 42.3688 43.4316C41.5623 43.6712 40.4909 43.9451 39.6439 43.8428C40.3251 43.6279 40.959 43.2978 41.2997 42.6352C41.5093 42.2275 41.5687 41.7175 41.4291 41.2782C41.3118 40.9085 41.0192 40.5974 40.6763 40.4248C39.9985 40.0825 39.0846 40.0327 38.372 40.2772C37.9367 40.4263 37.4841 40.788 37.2877 41.2117C37.0829 41.6528 37.0375 42.1267 37.212 42.5854C37.4304 43.1627 37.9034 43.502 38.4454 43.7435L38.7409 43.8705C38.3576 43.9466 37.9379 43.9203 37.5488 43.9162C36.1342 43.9006 34.729 43.6788 33.3563 43.3457L32.5994 42.1066Z" fill="#FF6100"/>
<path d="M35.9752 39.887C36.0271 39.89 36.0777 39.9043 36.1236 39.9288L36.0963 40.1137C35.9264 40.2361 35.9828 40.1662 35.8079 40.1932C35.6615 40.2152 35.6603 40.3388 35.4477 40.3305C34.5901 40.985 33.9789 41.7217 33.5474 42.7124L33.2636 42.542C33.2155 42.4013 33.2152 42.3823 33.2636 42.242C33.4873 41.6004 34.1057 41.0215 34.6669 40.6747C34.8376 40.5693 35.0314 40.4993 35.1967 40.389C35.4757 40.2068 35.6622 40.033 35.9752 39.887Z" fill="#2C0047"/>
<path d="M44.9922 36.5782L45.1742 36.5489L45.2541 36.6139L45.2458 36.9205L43.978 37.3845L44.3314 39.4291C44.3568 39.5888 44.454 39.9235 44.3927 40.0616L44.317 39.8714L43.1734 36.9174L44.9922 36.5782Z" fill="#2C0047"/>
<path d="M11.0232 34.8169L7.58379 15.4157L13.3741 13.9085L14.3043 21.6166C14.4492 21.6386 14.5953 21.6513 14.7418 21.6546C15.0624 21.7211 15.5131 21.6546 15.8461 21.6489L21.0434 21.3587L21.071 14.2649L26.389 15.2537C25.4573 19.8465 25.0145 24.5759 24.4128 29.2231L24.2179 30.7368C24.1921 30.965 24.2069 31.3362 24.0877 31.529C23.324 31.1719 22.4429 31.0859 21.6421 31.3886C21.2167 31.5495 20.8939 31.7971 20.5949 32.1364C20.7225 31.5278 20.6706 30.7672 20.6873 30.1438L20.816 26.5977L15.6565 26.4018L16.175 35.0542L11.1768 35.6141L11.0232 34.8169Z" fill="#FF6100"/>
<path d="M12.708 17.2455C12.7984 17.2797 12.8829 17.3281 12.9582 17.3889C13.0028 17.5828 12.9294 17.6528 12.8446 17.8198C12.75 17.7817 12.6755 17.7099 12.5968 17.6448C12.5547 17.4414 12.6024 17.4132 12.708 17.2455Z" fill="#2C0047"/>
<path d="M21.6338 15.0696C22.8414 15.3716 24.191 15.6124 25.3282 16.1193C24.5986 16.1448 23.8106 15.9828 23.0878 15.8778C22.852 15.8432 22.3559 15.6991 22.1602 15.7812L22.0948 16.1787L21.5649 19.7263C21.4892 19.1559 21.5668 18.5093 21.5869 17.9346L21.6338 15.0696Z" fill="#2C0047"/>
<path d="M11.4818 15.2879H11.6574C11.5238 15.6143 9.71333 16.6122 9.30158 16.8473L9.44161 18.437L10.1353 24.4294C10.211 24.9505 10.2129 25.575 10.337 26.0732C10.3836 26.2592 10.3779 26.4417 10.379 26.6323L10.3223 26.2451L8.38611 16.0676L11.4818 15.2879Z" fill="#2C0047"/>
<path d="M11.0232 34.8169C11.408 34.7028 11.9178 34.7073 12.3216 34.6647L15.5252 34.37L14.844 25.3498L20.8882 25.578L20.8152 26.5958L15.6558 26.3999L16.1743 35.0523L11.1761 35.6121L11.0232 34.8169Z" fill="#C24404"/>
<defs>
<linearGradient id="paint0_linear_238_111" x1="26.7963" y1="40.6712" x2="21.6566" y2="31.6972" gradientUnits="userSpaceOnUse">
<stop stop-color="#130021"/>
<stop offset="1" stop-color="#321D32"/>
</linearGradient>
</defs>
</svg>
